<svg xmlns="http://www.w3.org/2000/svg" xml:space="preserve" width="4608" height="3072" viewBox="0 0 1219.2 812.8"><path d="M 1219.2,2.5119996e-6 V 812.8 H 0 V 2.5119996e-6 Z" style="display:inline;fill:#ffd000;fill-opacity:1;fill-rule:evenodd;stroke:none;stroke-width:8.46667;stroke-linecap:round;stroke-linejoin:round"/><path d="M 0,541.86668 V 2.5119996e-6 H 1219.2 V 541.86668 Z" style="display:inline;fill:#000;fill-opacity:1;fill-rule:evenodd;stroke:none;stroke-width:8.46666;stroke-linecap:round;stroke-linejoin:round"/><path d="M 0,270.93336 V 0 h 1219.2 v 270.93336 z" style="fill:#f07000;fill-opacity:1;fill-rule:evenodd;stroke:none;stroke-width:8.46668;stroke-linecap:round;stroke-linejoin:round"/><path d="m 338.66665,135.46666 c 0,338.66665 0,440.26664 270.93332,575.7333 C 880.53329,575.7333 880.53329,474.13331 880.53329,135.46666 812.79996,169.33332 677.3333,169.33332 609.59997,101.59999 541.86664,169.33332 406.39998,169.33332 338.66665,135.46666 Z" style="display:inline;fill:silver;fill-opacity:1;stroke-width:67.7333;stroke-miterlimit:128;paint-order:stroke fill markers"/><path d="M 609.59948 145.76371 C 570.86871 173.47167 523.24878 186.5241 476.94556 190.38269 C 440.55105 193.41558 404.75426 190.92873 372.6248 183.20329 C 373.10155 325.05926 376.83372 419.09349 403.97844 486.95529 C 432.8973 559.25247 487.95217 610.54462 609.59948 673.15994 C 731.24719 610.54448 786.30367 559.25258 815.22259 486.95529 C 842.3673 419.09349 846.09949 325.05926 846.57623 183.20329 C 814.44632 190.92908 778.64913 193.41563 742.25392 190.38269 C 695.9507 186.5241 648.33025 173.47167 609.59948 145.76371 z M 552.31461 208.2493 C 566.22715 209.63821 578.89798 216.77605 593.35448 214.66855 C 613.89657 212.7079 632.62971 222.37126 650.32206 231.43342 C 663.47731 238.82373 675.78028 249.59946 682.78313 263.07903 C 696.8108 290.37116 689.68287 323.51439 675.17016 349.0867 C 668.95911 367.03442 650.52928 375.14511 632.54899 371.83312 C 600.17016 368.97582 567.53866 362.40914 534.95184 366.95435 C 518.42477 368.5003 505.34267 379.9916 490.54267 385.71599 C 482.17569 374.73825 494.60698 356.60175 503.26541 347.29973 C 516.93101 331.75605 537.77076 324.61978 558.15249 326.44157 C 580.16274 325.44683 603.32654 332.35472 624.39755 323.74561 C 639.48819 316.8499 654.03291 302.9094 649.85646 284.78003 C 647.37011 269.44745 628.03813 255.84008 612.90729 262.11475 C 598.53358 272.38738 582.94279 285.43769 564.27408 284.61105 C 571.42437 275.90048 585.65722 267.30534 593.91362 256.96519 C 604.1735 240.45051 578.19533 264.15098 578.17763 254.23926 C 559.62949 256.48113 579.7918 252.09167 586.36628 249.54032 C 605.50358 247.42233 587.07582 237.06191 579.77753 232.24784 C 563.41243 215.65419 555.23472 244.05263 557.22594 257.35483 C 549.19741 253.87932 553.39539 230.74313 554.12018 220.35864 C 539.00186 222.25647 544.74445 245.22742 544.57761 256.31149 C 546.375 267.11825 538.06982 245.04263 538.07982 241.21628 C 538.17214 229.89369 536.43919 208.97306 552.31461 208.2493 z M 570.6184 374.19473 C 598.8746 374.94075 626.62076 381.53448 654.80034 383.54145 C 672.57696 384.51825 692.74245 396.03075 692.28022 416.06918 C 694.13799 440.89007 668.49764 438.26013 653.87585 428.3475 C 609.73968 412.92122 559.9136 405.03379 514.96805 421.87761 C 501.62465 424.04926 481.25862 451.74841 475.73117 427.18736 C 479.67776 410.74561 491.37911 396.3836 505.2782 387.13399 C 525.73224 378.29735 548.3938 374.37678 570.6184 374.19473 z M 763.12241 394.56661 C 768.52522 394.80604 773.95943 394.49963 779.34313 395.07718 C 794.82788 399.84549 780.8441 401.45477 772.89494 402.46587 C 760.53364 411.80276 763.64373 429.81836 766.45296 442.9988 C 772.36477 458.5272 774.6562 476.12281 767.08496 491.54312 C 760.41815 504.83974 751.99186 517.49265 741.85343 528.34915 C 731.96834 540.57749 716.90362 547.57453 701.12775 546.7904 C 676.61678 547.67307 652.12627 543.92606 629.32748 534.82317 C 613.04507 527.17135 595.28233 523.59575 577.2459 525.1173 C 549.49746 524.77445 526.55348 547.15581 498.6352 543.84897 C 480.8071 541.31485 474.29497 519.60851 482.46719 505.14591 C 488.80165 487.88352 510.20673 492.68621 524.17111 487.2085 C 541.21535 483.27457 557.76603 476.09281 575.50286 476.10841 C 599.55875 474.90199 622.70295 482.47411 643.85166 493.33371 C 663.7045 503.48686 684.47303 519.4721 708.10458 512.67775 C 719.1154 505.39041 729.9675 496.9455 737.72448 486.12382 C 748.85864 472.20491 744.21016 453.63768 745.34882 437.256 C 744.54328 421.9803 745.94591 399.97447 763.12241 394.56661 z M 586.87115 424.17411 C 606.07492 424.30707 624.60742 429.29559 642.94163 435.04321 C 661.44449 441.91386 685.18133 445.32471 695.23095 464.51842 C 702.18994 478.64006 690.02853 504.05861 672.05562 496.21519 C 647.17457 480.86346 619.28571 471.29687 591.05695 464.22541 C 565.42819 457.74422 541.26083 471.47064 517.85883 479.48236 C 502.99987 485.52359 481.15612 484.21578 480.78099 463.66059 C 486.97231 446.17629 505.11172 436.49166 522.07769 431.87338 C 540.41119 426.24532 559.38686 423.30914 578.59827 424.42629 C 581.37043 424.23515 584.12776 424.15512 586.87115 424.17411 z" style="color:#000;fill:#fff;stroke-miterlimit:128;-inkscape-stroke:none"/></svg>