<svg xmlns="http://www.w3.org/2000/svg" xml:space="preserve" width="512" height="512" viewBox="0 0 135.46666 135.46667"><path d="M 3.0699748,134.98595 C -0.39535942,133.66956 -0.16630343,130.35473 6.9999992e-7,127.39604 V 12.866816 C 4.9164958,6.9128453 12.733058,4.1357229 19.830133,1.6590279 35.051952,-2.6552631 50.963892,1.787919 65.06935,7.7809377 78.648948,13.095948 92.503364,20.226377 107.54241,18.464757 c 7.96712,-0.71706 14.50541,-5.616067 21.44182,-8.9905929 3.68896,-0.9785489 6.48243,2.4386349 6.48243,6.4044899 v 83.172698 c -5.6063,6.213578 -13.8356,9.641718 -21.81849,11.708188 -15.156819,3.55969 -30.527131,-1.26404 -44.442195,-7.10931 -14.020609,-5.421261 -28.663896,-12.978293 -44.140273,-9.738643 -4.939065,1.183489 -9.668365,3.246751 -13.924098,6.015766 l 0,31.165827 c -1.02366,2.80605 -5.4761101,5.10503 -8.0716292,3.89277 z M 111.3489,100.05229 c 4.59615,-1.208105 8.99956,-3.155835 12.97623,-5.758457 V 58.376571 c -9.13576,4.894912 -19.73445,7.042 -29.994596,4.996311 -4.080309,-1.074316 -8.298273,-2.749378 -6.790067,2.870951 v 32.507335 c 7.734809,2.284682 15.882133,3.217332 23.808433,1.301122 z M 13.656909,86.169865 c 10.711893,-4.840624 23.02643,-4.780772 34.269286,-2.018999 V 47.380165 C 36.216681,43.996871 21.990177,44.497624 11.141604,50.389549 V 87.15919 c 0.811206,-0.291681 1.723441,-0.650465 2.515305,-0.989325 z m 73.79843,-41.416442 -0.09174,-17.01253 C 73.986615,23.923228 61.522743,17.560383 48.28226,13.381544 c -0.603574,11.303405 -0.124893,22.654595 -0.179204,33.97917 13.216263,4.029098 25.57625,10.499696 38.821747,14.378149 1.240829,-5.229192 0.226573,-11.444085 0.530536,-16.98544 z" style="fill:#fff;fill-opacity:1;stroke-width:1"/></svg>