<svg xmlns="http://www.w3.org/2000/svg" xml:space="preserve" width="512" height="512" viewBox="0 0 135.46666 135.46667"><path d="M 33.325097 16.949353 C 32.227539 17.019253 31.125325 17.305503 30.079817 17.828369 C 20.063647 22.836453 13.665084 30.328163 9.4335326 38.404374 C 4.6008822 47.627806 2.7977901 59.548851 1.5487427 69.836047 C 0.29969509 80.123241 0.0056844075 88.603376 0.0056844075 88.603376 C 0.010424393 88.63986 0.014120295 88.6765 0.01912028 88.71293 C 0.01872028 88.776997 0 88.836356 0 88.900516 C 0 105.16619 13.367128 118.53283 29.632816 118.53282 C 44.795344 118.53282 57.292165 106.87632 58.937487 92.125125 C 59.08533 91.928361 58.976248 91.930301 59.792732 91.277115 C 61.148431 90.192556 63.265582 88.900728 67.733332 88.900516 C 72.201084 88.900728 74.318234 90.192556 75.673933 91.277115 C 76.490416 91.930301 76.381335 91.928361 76.529178 92.125125 C 78.1745 106.87633 90.67132 118.53333 105.83385 118.53333 C 122.09953 118.53334 135.46666 105.16619 135.46666 88.900516 C 135.46666 88.836356 135.44794 88.776997 135.44754 88.71293 C 135.45254 88.6765 135.45658 88.63986 135.46098 88.603376 C 135.46098 88.603376 135.16697 80.123241 133.91792 69.836047 C 132.66887 59.548851 130.86579 47.627806 126.03313 38.404374 C 121.80159 30.328163 115.40302 22.836453 105.38685 17.828369 C 104.34134 17.305503 103.23913 17.019249 102.14157 16.949353 C 98.848873 16.739666 95.596051 18.476679 94.027334 21.613151 C 91.936156 25.795713 93.632002 30.881754 97.8147 32.972664 C 104.7318 36.431216 107.8552 40.198729 111.03301 46.263842 C 112.58984 49.235135 113.99401 54.876889 115.20692 60.947183 C 112.24066 59.940029 109.12389 59.267699 105.83385 59.267699 C 94.800771 59.267701 85.215945 65.488181 80.117073 74.521549 C 76.683112 73.039992 72.580981 71.966821 67.733332 71.966666 C 62.885685 71.966821 58.783553 73.039992 55.349592 74.521549 C 50.25072 65.488181 40.665893 59.267701 29.632816 59.267699 C 26.342782 59.267699 23.225999 59.940029 20.259745 60.947183 C 21.472653 54.876889 22.876824 49.235135 24.43365 46.263842 C 27.611474 40.198729 30.734859 36.431216 37.651965 32.972664 C 41.834663 30.881754 43.530509 25.795713 41.439331 21.613151 C 39.870614 18.476679 36.61779 16.739666 33.325097 16.949353 z M 29.633333 76.199999 A 12.7 12.7 0 0 1 42.333333 88.899999 A 12.7 12.7 0 0 1 29.633333 101.6 A 12.7 12.7 0 0 1 16.933333 88.899999 A 12.7 12.7 0 0 1 29.633333 76.199999 z M 105.83333 76.199999 A 12.7 12.7 0 0 1 118.53333 88.899999 A 12.7 12.7 0 0 1 105.83333 101.6 A 12.7 12.7 0 0 1 93.133332 88.899999 A 12.7 12.7 0 0 1 105.83333 76.199999 z" style="color:#000;fill:#fff;fill-opacity:1;stroke:none;stroke-linecap:round;stroke-linejoin:round;stroke-miterlimit:128;-inkscape-stroke:none;paint-order:stroke fill markers"/></svg>